<svg xmlns="http://www.w3.org/2000/svg" xmlns:xlink="http://www.w3.org/1999/xlink" version="1.1" id="svg-5e6e" x="0px" y="0px" viewBox="0 0 395.947 395.947" style="enable-background:new 0 0 395.947 395.947;" xml:space="preserve" class="u-svg-content"><g><g><path fill="white" d="M205.974,1.67c-1.495-1.297-3.465-1.881-5.441-1.601L9.387,27.375c-3.366,0.481-5.861,3.362-5.861,6.758v327.68    c0,3.396,2.499,6.277,5.861,6.758l191.147,27.307c0.324,0.044,0.645,0.068,0.966,0.068c1.635,0,3.226-0.587,4.475-1.669    c1.492-1.297,2.352-3.178,2.352-5.158V6.827C208.326,4.847,207.469,2.967,205.974,1.67z M194.673,381.249L17.18,355.895V40.052    l177.493-25.354V381.249z"></path>
</g>
</g><g><g><path fill="white" d="M385.82,54.842H201.5c-3.645,0-6.601,2.953-6.601,6.598v279.893c0,3.645,2.959,6.598,6.601,6.598h184.32    c3.645,0,6.601-2.953,6.601-6.598V61.44C392.421,57.795,389.462,54.842,385.82,54.842z M379.222,334.736H208.101V68.038h171.121    V334.736z"></path>
</g>
</g><g><g><path fill="white" d="M324.379,109.456h-122.88c-3.645,0-6.601,2.953-6.601,6.598s2.959,6.598,6.601,6.598h122.88    c3.645,0,6.601-2.953,6.601-6.598S328.022,109.456,324.379,109.456z"></path>
</g>
</g><g><g><path fill="white" d="M324.379,143.589h-122.88c-3.645,0-6.601,2.953-6.601,6.598c0,3.645,2.959,6.598,6.601,6.598h122.88    c3.645,0,6.601-2.953,6.601-6.598C330.981,146.542,328.022,143.589,324.379,143.589z"></path>
</g>
</g><g><g><path fill="white" d="M324.379,177.722h-122.88c-3.645,0-6.601,2.953-6.601,6.598s2.959,6.598,6.601,6.598h122.88    c3.645,0,6.601-2.953,6.601-6.598S328.022,177.722,324.379,177.722z"></path>
</g>
</g><g><g><path fill="white" d="M324.379,211.856h-122.88c-3.645,0-6.601,2.953-6.601,6.598s2.959,6.598,6.601,6.598h122.88    c3.645,0,6.601-2.953,6.601-6.598S328.022,211.856,324.379,211.856z"></path>
</g>
</g><g><g><path fill="white" d="M324.379,245.989h-122.88c-3.645,0-6.601,2.953-6.601,6.598s2.959,6.598,6.601,6.598h122.88    c3.645,0,6.601-2.953,6.601-6.598S328.022,245.989,324.379,245.989z"></path>
</g>
</g><g><g><path fill="white" d="M324.379,280.122h-122.88c-3.645,0-6.601,2.953-6.601,6.598c0,3.645,2.959,6.598,6.601,6.598h122.88    c3.645,0,6.601-2.953,6.601-6.598C330.981,283.075,328.022,280.122,324.379,280.122z"></path>
</g>
</g><g></g><g></g><g></g><g></g><g></g><g></g><g></g><g></g><g></g><g></g><g></g><g></g><g></g><g></g><g></g></svg>